<svg width="222" height="44" viewBox="0 0 222 44" fill="none" xmlns="http://www.w3.org/2000/svg">
<g clip-path="url(#clip0_146_10528)">
<path fill-rule="evenodd" clip-rule="evenodd" d="M44 22C44 34.1503 34.1503 44 22 44C9.84974 44 0 34.1503 0 22C0 11.2158 7.75953 2.24382 18 0.362793V4.53927C11.6576 6.28976 7 12.101 7 19C7 27.2843 13.7157 34 22 34C30.2843 34 37 27.2843 37 19C37 12.101 32.3424 6.28976 26 4.53927V0.362793C36.2405 2.24382 44 11.2158 44 22ZM22 28C26.9706 28 31 23.9706 31 19C31 14.0294 26.9706 10 22 10C17.0294 10 13 14.0294 13 19C13 23.9706 17.0294 28 22 28Z" fill="#111827"/>
</g>
<path d="M70.08 32.288C68.8 32.288 67.608 32.056 66.504 31.592C65.416 31.128 64.464 30.48 63.648 29.648C62.832 28.816 62.192 27.84 61.728 26.72C61.28 25.6 61.056 24.376 61.056 23.048C61.056 21.72 61.28 20.496 61.728 19.376C62.176 18.24 62.808 17.264 63.624 16.448C64.44 15.616 65.392 14.976 66.48 14.528C67.584 14.064 68.784 13.832 70.08 13.832C71.376 13.832 72.536 14.048 73.56 14.48C74.6 14.912 75.48 15.488 76.2 16.208C76.92 16.928 77.432 17.728 77.736 18.608L74.448 20.192C74.144 19.328 73.608 18.616 72.84 18.056C72.088 17.48 71.168 17.192 70.08 17.192C69.024 17.192 68.096 17.44 67.296 17.936C66.496 18.432 65.872 19.12 65.424 20C64.992 20.864 64.776 21.88 64.776 23.048C64.776 24.216 64.992 25.24 65.424 26.12C65.872 27 66.496 27.688 67.296 28.184C68.096 28.68 69.024 28.928 70.08 28.928C71.168 28.928 72.088 28.648 72.84 28.088C73.608 27.512 74.144 26.792 74.448 25.928L77.736 27.512C77.432 28.392 76.92 29.192 76.2 29.912C75.48 30.632 74.6 31.208 73.56 31.64C72.536 32.072 71.376 32.288 70.08 32.288ZM79.8591 32V13.832H83.4591V32H79.8591ZM86.0934 32V18.896H89.6934V32H86.0934ZM86.0934 17.72V14.12H89.6934V17.72H86.0934ZM92.3278 32V18.896H95.6878V21.488L95.4958 20.912C95.7998 20.128 96.2878 19.552 96.9598 19.184C97.6478 18.8 98.4478 18.608 99.3598 18.608C100.352 18.608 101.216 18.816 101.952 19.232C102.704 19.648 103.288 20.232 103.704 20.984C104.12 21.72 104.328 22.584 104.328 23.576V32H100.728V24.344C100.728 23.832 100.624 23.392 100.416 23.024C100.224 22.656 99.9438 22.368 99.5758 22.16C99.2238 21.952 98.8078 21.848 98.3278 21.848C97.8638 21.848 97.4478 21.952 97.0798 22.16C96.7118 22.368 96.4238 22.656 96.2158 23.024C96.0238 23.392 95.9278 23.832 95.9278 24.344V32H92.3278ZM106.695 32V18.896H110.295V32H106.695ZM106.695 17.72V14.12H110.295V17.72H106.695ZM119.361 32.288C118.049 32.288 116.865 31.992 115.809 31.4C114.769 30.792 113.937 29.968 113.313 28.928C112.705 27.888 112.401 26.72 112.401 25.424C112.401 24.128 112.705 22.968 113.313 21.944C113.921 20.904 114.753 20.088 115.809 19.496C116.865 18.904 118.049 18.608 119.361 18.608C120.337 18.608 121.241 18.776 122.073 19.112C122.905 19.448 123.617 19.92 124.209 20.528C124.801 21.12 125.225 21.824 125.481 22.64L122.361 23.984C122.137 23.328 121.753 22.808 121.209 22.424C120.681 22.04 120.065 21.848 119.361 21.848C118.737 21.848 118.177 22 117.681 22.304C117.201 22.608 116.817 23.032 116.529 23.576C116.257 24.12 116.121 24.744 116.121 25.448C116.121 26.152 116.257 26.776 116.529 27.32C116.817 27.864 117.201 28.288 117.681 28.592C118.177 28.896 118.737 29.048 119.361 29.048C120.081 29.048 120.705 28.856 121.233 28.472C121.761 28.088 122.137 27.568 122.361 26.912L125.481 28.28C125.241 29.048 124.825 29.736 124.233 30.344C123.641 30.952 122.929 31.432 122.097 31.784C121.265 32.12 120.353 32.288 119.361 32.288ZM131.657 32.288C130.713 32.288 129.897 32.136 129.209 31.832C128.521 31.528 127.993 31.096 127.625 30.536C127.257 29.96 127.073 29.28 127.073 28.496C127.073 27.76 127.241 27.112 127.577 26.552C127.913 25.976 128.425 25.496 129.113 25.112C129.817 24.728 130.689 24.456 131.729 24.296L135.737 23.648V26.288L132.377 26.888C131.865 26.984 131.473 27.152 131.201 27.392C130.929 27.616 130.793 27.944 130.793 28.376C130.793 28.776 130.945 29.088 131.249 29.312C131.553 29.536 131.929 29.648 132.377 29.648C132.969 29.648 133.489 29.52 133.937 29.264C134.385 29.008 134.729 28.664 134.969 28.232C135.225 27.784 135.353 27.296 135.353 26.768V23.36C135.353 22.864 135.153 22.448 134.753 22.112C134.369 21.776 133.841 21.608 133.169 21.608C132.529 21.608 131.961 21.784 131.465 22.136C130.985 22.488 130.633 22.952 130.409 23.528L127.529 22.16C127.785 21.424 128.193 20.792 128.753 20.264C129.313 19.736 129.985 19.328 130.769 19.04C131.553 18.752 132.409 18.608 133.337 18.608C134.441 18.608 135.417 18.808 136.265 19.208C137.113 19.608 137.769 20.168 138.233 20.888C138.713 21.592 138.953 22.416 138.953 23.36V32H135.593V29.888L136.409 29.744C136.025 30.32 135.601 30.8 135.137 31.184C134.673 31.552 134.153 31.824 133.577 32C133.001 32.192 132.361 32.288 131.657 32.288Z" fill="#111827"/>
<path d="M146.17 32V14.12H149.89V21.848H156.85V14.12H160.57V32H156.85V25.088H149.89V32H146.17ZM169.796 32.288C168.404 32.288 167.196 31.984 166.172 31.376C165.148 30.752 164.356 29.92 163.796 28.88C163.236 27.84 162.956 26.688 162.956 25.424C162.956 24.112 163.244 22.944 163.82 21.92C164.412 20.896 165.204 20.088 166.196 19.496C167.188 18.904 168.308 18.608 169.556 18.608C170.596 18.608 171.516 18.776 172.316 19.112C173.116 19.432 173.788 19.888 174.332 20.48C174.892 21.072 175.316 21.76 175.604 22.544C175.892 23.312 176.036 24.152 176.036 25.064C176.036 25.32 176.02 25.576 175.988 25.832C175.972 26.072 175.932 26.28 175.868 26.456H166.052V23.816H173.828L172.124 25.064C172.284 24.376 172.276 23.768 172.1 23.24C171.924 22.696 171.612 22.272 171.164 21.968C170.732 21.648 170.196 21.488 169.556 21.488C168.932 21.488 168.396 21.64 167.948 21.944C167.5 22.248 167.164 22.696 166.94 23.288C166.716 23.88 166.628 24.6 166.676 25.448C166.612 26.184 166.7 26.832 166.94 27.392C167.18 27.952 167.548 28.392 168.044 28.712C168.54 29.016 169.14 29.168 169.844 29.168C170.484 29.168 171.028 29.04 171.476 28.784C171.94 28.528 172.3 28.176 172.556 27.728L175.436 29.096C175.18 29.736 174.772 30.296 174.212 30.776C173.668 31.256 173.02 31.632 172.268 31.904C171.516 32.16 170.692 32.288 169.796 32.288ZM182.212 32.288C181.268 32.288 180.452 32.136 179.764 31.832C179.076 31.528 178.548 31.096 178.18 30.536C177.812 29.96 177.628 29.28 177.628 28.496C177.628 27.76 177.796 27.112 178.132 26.552C178.468 25.976 178.98 25.496 179.668 25.112C180.372 24.728 181.244 24.456 182.284 24.296L186.292 23.648V26.288L182.932 26.888C182.42 26.984 182.028 27.152 181.756 27.392C181.484 27.616 181.348 27.944 181.348 28.376C181.348 28.776 181.5 29.088 181.804 29.312C182.108 29.536 182.484 29.648 182.932 29.648C183.524 29.648 184.044 29.52 184.492 29.264C184.94 29.008 185.284 28.664 185.524 28.232C185.78 27.784 185.908 27.296 185.908 26.768V23.36C185.908 22.864 185.708 22.448 185.308 22.112C184.924 21.776 184.396 21.608 183.724 21.608C183.084 21.608 182.516 21.784 182.02 22.136C181.54 22.488 181.188 22.952 180.964 23.528L178.084 22.16C178.34 21.424 178.748 20.792 179.308 20.264C179.868 19.736 180.54 19.328 181.324 19.04C182.108 18.752 182.964 18.608 183.892 18.608C184.996 18.608 185.972 18.808 186.82 19.208C187.668 19.608 188.324 20.168 188.788 20.888C189.268 21.592 189.508 22.416 189.508 23.36V32H186.148V29.888L186.964 29.744C186.58 30.32 186.156 30.8 185.692 31.184C185.228 31.552 184.708 31.824 184.132 32C183.556 32.192 182.916 32.288 182.212 32.288ZM192.148 32V13.832H195.748V32H192.148ZM204.695 32.144C203.111 32.144 201.879 31.72 200.999 30.872C200.135 30.008 199.703 28.808 199.703 27.272V22.016H197.495V18.896H197.615C198.287 18.896 198.799 18.728 199.151 18.392C199.519 18.056 199.703 17.552 199.703 16.88V15.92H203.303V18.896H206.375V22.016H203.303V27.032C203.303 27.48 203.383 27.856 203.543 28.16C203.703 28.448 203.951 28.664 204.287 28.808C204.623 28.952 205.039 29.024 205.535 29.024C205.647 29.024 205.775 29.016 205.919 29C206.063 28.984 206.215 28.968 206.375 28.952V32C206.135 32.032 205.863 32.064 205.559 32.096C205.255 32.128 204.967 32.144 204.695 32.144ZM208.484 32V13.832H212.084V21.488L211.652 20.912C211.956 20.128 212.444 19.552 213.116 19.184C213.804 18.8 214.604 18.608 215.516 18.608C216.508 18.608 217.372 18.816 218.108 19.232C218.86 19.648 219.444 20.232 219.86 20.984C220.276 21.72 220.484 22.584 220.484 23.576V32H216.884V24.344C216.884 23.832 216.78 23.392 216.572 23.024C216.38 22.656 216.1 22.368 215.732 22.16C215.38 21.952 214.964 21.848 214.484 21.848C214.02 21.848 213.604 21.952 213.236 22.16C212.868 22.368 212.58 22.656 212.372 23.024C212.18 23.392 212.084 23.832 212.084 24.344V32H208.484Z" fill="#4F46E5"/>
<defs>
<clipPath id="clip0_146_10528">
<rect width="44" height="44" fill="white"/>
</clipPath>
</defs>
</svg>
